<?xml version="1.0" standalone="no"?><svg xmlns="http://www.w3.org/2000/svg" viewBox="0 0 1440 320"><path fill="green" fill-opacity="1" d="M0,192L16,170.7C32,149,64,107,96,122.7C128,139,160,213,192,224C224,235,256,181,288,138.7C320,96,352,64,384,80C416,96,448,160,480,165.3C512,171,544,117,576,90.7C608,64,640,64,672,101.3C704,139,736,213,768,218.7C800,224,832,160,864,138.7C896,117,928,139,960,128C992,117,1024,75,1056,58.7C1088,43,1120,53,1152,53.3C1184,53,1216,43,1248,58.7C1280,75,1312,117,1344,128C1376,139,1408,117,1424,106.7L1440,96L1440,320L1424,320C1408,320,1376,320,1344,320C1312,320,1280,320,1248,320C1216,320,1184,320,1152,320C1120,320,1088,320,1056,320C1024,320,992,320,960,320C928,320,896,320,864,320C832,320,800,320,768,320C736,320,704,320,672,320C640,320,608,320,576,320C544,320,512,320,480,320C448,320,416,320,384,320C352,320,320,320,288,320C256,320,224,320,192,320C160,320,128,320,96,320C64,320,32,320,16,320L0,320Z"></path></svg>