<?xml version="1.0" standalone="no"?><svg xmlns="http://www.w3.org/2000/svg" viewBox="0 0 1440 320"><path fill="green" fill-opacity="1" d="M0,32L9.2,80C18.5,128,37,224,55,224C73.8,224,92,128,111,112C129.2,96,148,160,166,176C184.6,192,203,160,222,144C240,128,258,128,277,154.7C295.4,181,314,235,332,224C350.8,213,369,139,388,128C406.2,117,425,171,443,208C461.5,245,480,267,498,266.7C516.9,267,535,245,554,197.3C572.3,149,591,75,609,48C627.7,21,646,43,665,53.3C683.1,64,702,64,720,69.3C738.5,75,757,85,775,85.3C793.8,85,812,75,831,69.3C849.2,64,868,64,886,85.3C904.6,107,923,149,942,170.7C960,192,978,192,997,213.3C1015.4,235,1034,277,1052,261.3C1070.8,245,1089,171,1108,128C1126.2,85,1145,75,1163,80C1181.5,85,1200,107,1218,112C1236.9,117,1255,107,1274,128C1292.3,149,1311,203,1329,202.7C1347.7,203,1366,149,1385,149.3C1403.1,149,1422,203,1431,229.3L1440,256L1440,0L1430.8,0C1421.5,0,1403,0,1385,0C1366.2,0,1348,0,1329,0C1310.8,0,1292,0,1274,0C1255.4,0,1237,0,1218,0C1200,0,1182,0,1163,0C1144.6,0,1126,0,1108,0C1089.2,0,1071,0,1052,0C1033.8,0,1015,0,997,0C978.5,0,960,0,942,0C923.1,0,905,0,886,0C867.7,0,849,0,831,0C812.3,0,794,0,775,0C756.9,0,738,0,720,0C701.5,0,683,0,665,0C646.2,0,628,0,609,0C590.8,0,572,0,554,0C535.4,0,517,0,498,0C480,0,462,0,443,0C424.6,0,406,0,388,0C369.2,0,351,0,332,0C313.8,0,295,0,277,0C258.5,0,240,0,222,0C203.1,0,185,0,166,0C147.7,0,129,0,111,0C92.3,0,74,0,55,0C36.9,0,18,0,9,0L0,0Z"></path></svg>